<?xml version="1.0" standalone="no"?>
<!DOCTYPE svg PUBLIC "-//W3C//DTD SVG 20010904//EN"
 "http://www.w3.org/TR/2001/REC-SVG-20010904/DTD/svg10.dtd">
<svg version="1.0" xmlns="http://www.w3.org/2000/svg"
 width="700.000000pt" height="700.000000pt" viewBox="0 0 700.000000 700.000000"
 preserveAspectRatio="xMidYMid meet">
<metadata>
Created by potrace 1.14, written by Peter Selinger 2001-2017
</metadata>
<g transform="translate(0.000000,700.000000) scale(0.100000,-0.100000)"
fill="#000000" stroke="none">
<path d="M3219 6996 c-2 -2 -40 -6 -83 -10 -44 -4 -82 -8 -85 -10 -3 -2 -35
-7 -70 -10 -36 -4 -67 -8 -70 -10 -3 -2 -27 -7 -53 -10 -26 -4 -53 -9 -60 -11
-7 -2 -24 -7 -38 -9 -97 -19 -356 -91 -415 -115 -11 -5 -69 -28 -130 -51 -439
-171 -836 -431 -1186 -780 -370 -369 -623 -758 -810 -1248 -57 -150 -125 -380
-145 -492 -2 -14 -7 -38 -11 -55 -4 -16 -7 -32 -8 -35 -1 -3 -4 -27 -9 -53 -4
-27 -9 -57 -11 -66 -2 -10 -6 -40 -9 -67 -4 -27 -10 -80 -15 -119 -10 -73 -8
-681 2 -725 3 -14 8 -47 12 -75 34 -282 145 -688 252 -924 153 -336 292 -566
492 -816 176 -220 480 -509 677 -645 320 -221 547 -340 874 -460 175 -64 521
-151 660 -166 25 -3 55 -7 67 -10 66 -13 198 -19 453 -19 285 0 379 5 529 30
13 2 45 8 70 12 25 4 48 7 51 8 3 1 19 4 35 8 17 4 41 8 55 11 14 2 63 14 110
26 47 12 93 23 103 25 24 5 286 93 312 105 11 5 65 28 120 51 132 56 321 154
453 236 92 56 307 205 322 223 3 3 17 15 32 26 172 133 434 400 590 604 67 88
198 277 198 286 0 2 11 21 24 42 109 168 258 495 334 733 114 357 159 658 160
1064 0 233 -5 332 -23 460 -3 22 -8 54 -10 70 -22 175 -127 582 -184 710 -5
11 -28 67 -52 125 -99 239 -252 507 -414 725 -220 297 -495 565 -801 782 -414
294 -951 515 -1424 588 -19 3 -46 7 -60 10 -24 4 -46 7 -200 24 -70 8 -603 14
-611 7z"/>
</g>
</svg>
